<svg xmlns="http://www.w3.org/2000/svg" viewBox="0 0 409 409" width="409" height="409">
	<style>
		tspan { white-space:pre }
		.shp0 { fill: #2b2b2b } 
	</style>
	<g id="Layer">
		<g id="Layer">
			<path id="Layer" fill-rule="evenodd" class="shp0" d="M408.58 204.29C408.58 316.93 316.93 408.58 204.29 408.58C91.65 408.58 0 316.93 0 204.29C0 91.65 91.65 0 204.29 0C316.93 0 408.58 91.65 408.58 204.29ZM318.46 121.34C310.27 113.15 297.47 113.15 289.28 121.34L172.54 238.08L117.76 187.9C109.57 180.22 96.77 180.74 89.09 188.93C81.92 197.12 82.43 209.92 90.62 217.6L159.74 280.58C167.94 288.26 180.22 287.74 187.9 280.06L318.46 150.53C326.66 142.34 326.66 129.54 318.46 121.34Z" />
		</g>
	</g>
	<g id="Layer">
	</g>
	<g id="Layer">
	</g>
	<g id="Layer">
	</g>
	<g id="Layer">
	</g>
	<g id="Layer">
	</g>
	<g id="Layer">
	</g>
	<g id="Layer">
	</g>
	<g id="Layer">
	</g>
	<g id="Layer">
	</g>
	<g id="Layer">
	</g>
	<g id="Layer">
	</g>
	<g id="Layer">
	</g>
	<g id="Layer">
	</g>
	<g id="Layer">
	</g>
	<g id="Layer">
	</g>
</svg>