<svg xmlns="http://www.w3.org/2000/svg" width="382.002" height="74" viewBox="0 0 382.002 74"><path d="M20377.5,3614.75v0Zm-102.953,0v0Zm-120.594,3.365v0Zm217.559,6.729v0Zm-90.977,0v0Zm-11.977,0v0Zm-5.988,4.481v0Zm79,.226v0Zm-139.711,0v0Zm181.629,2.691v0Zm-17.965,0v0Zm-17.965,0v0Zm-61.035.448v0Zm67.023,3.591v0Zm-29.941,0v0Zm-175.641,0v0Zm145.693,1.765v0Zm41.924.926v0Zm-163.664,0v0Zm-11.977,0v0Zm278.266.669v0Zm-36.754,0v0Zm-11.977,0v0Zm-163.664,0v0Zm-29.941,0v0Zm103.775,3.144v0Zm186.725.221v0Zm-36.187,0v0Zm-120.59,0v0Zm-121.746,0v0Zm109.77,1.075v0Zm-175.641,0v0Zm114.605.2v0Zm-12.229,0v0Zm-125.246.077v0Zm240.141.669v0Zm-193.318,0v0Zm241.512,1.348v0Zm-11.977,0v0Zm-163.664,0v0Zm212.395.674v0Zm35.986.674v0Zm-24,0v0Zm-23.959,0v0Zm-12.229,0v0Zm-206.154,0v0Zm-23.953,0v0Zm-11.977,0v0Zm60.17.3v0Zm-114.064,1.044v0Zm369.494.674v0Zm-19.117,0v0Zm-12.223,0v0Zm-48.447,0v0Zm-108.082,0v0Zm-85.812,0v0Zm-36.219,0v0Zm-53.605,0v0Zm181.625.674v0Zm-175.637,0v0Zm114.354.1v0Zm248.768.571v0Zm-31.156,0v0Zm-41.971,0v0Z" transform="translate(-20118.105 -3614.75)" fill="none" stroke="#2b2b2b" stroke-width="2"/></svg>