<svg xmlns="http://www.w3.org/2000/svg" viewBox="0 0 14 14" width="14" height="14">
	<style>
		tspan { white-space:pre }
		.shp0 { fill: #2b2b2b } 
	</style>
	<path id="Icon_metro-blocked" fill-rule="evenodd" class="shp0" d="M14 7C14 8.86 13.26 10.64 11.95 11.95C10.64 13.26 8.86 14 7 14C5.14 14 3.36 13.26 2.05 11.95C0.74 10.64 0 8.86 0 7C0 5.14 0.74 3.36 2.05 2.05C3.36 0.74 5.14 0 7 0C8.86 0 10.64 0.74 11.95 2.05C13.26 3.36 14 5.14 14 7ZM12.25 7C12.25 6.04 11.98 5.09 11.48 4.27C10.98 3.45 10.26 2.78 9.41 2.33C8.55 1.89 7.59 1.7 6.63 1.76C5.67 1.83 4.74 2.16 3.96 2.72L11.28 10.04C11.43 9.82 11.57 9.59 11.7 9.35C11.82 9.1 11.92 8.85 12 8.6C12.08 8.34 12.15 8.07 12.19 7.81C12.23 7.54 12.25 7.27 12.25 7ZM1.75 7C1.75 7.96 2.01 8.91 2.51 9.73C3.02 10.55 3.73 11.22 4.59 11.67C5.45 12.11 6.41 12.3 7.37 12.24C8.33 12.17 9.25 11.84 10.04 11.28L2.72 3.96C2.56 4.18 2.42 4.41 2.3 4.65C2.18 4.9 2.08 5.15 2 5.4C1.91 5.66 1.85 5.93 1.81 6.19C1.77 6.46 1.75 6.73 1.75 7Z" />
</svg>