<svg xmlns="http://www.w3.org/2000/svg" width="60" height="60" viewBox="0 0 60 60"><defs><style>.a{fill:#fb923c;}</style></defs><path class="a" d="M-5565.924,3488a3.752,3.752,0,0,1-2.86-3.324c-.769-5.191-1.606-10.373-2.412-15.557-.6-3.817-1.2-7.634-1.774-11.454a2.584,2.584,0,0,1,1.984-2.911c.26-.058.531-.071.839-.112-.1-.625-.194-1.2-.287-1.777a3.39,3.39,0,0,1,3.622-4.241q2.067,0,4.134,0c2.914,0,5.829.005,8.744-.012a4.847,4.847,0,0,1,3.967,1.818c1.092,1.309,2.2,2.607,3.325,3.883a1.336,1.336,0,0,0,.789.362,14.21,14.21,0,0,0,1.534.014q9.423,0,18.844,0a2.619,2.619,0,0,1,2.9,2.25c.414,2.68.8,5.365,1.2,8.048q1.091,7.351,2.185,14.7c.273,1.833.572,3.666.771,5.505a2.468,2.468,0,0,1-1.718,2.644,2.994,2.994,0,0,0-.3.156Zm45.756-37.353c.142-.013.292-.036.446-.036,1.4,0,2.794-.021,4.192.006a2.523,2.523,0,0,1,2.5,2.9c-.7,4.826-1.425,9.648-2.14,14.47q-.624,4.2-1.249,8.392c-.042.282-.091.565-.137.847C-5517.929,3468.395-5519.453,3459.595-5520.168,3450.646Zm-6.62.749v-19.376h-28.9v13.763h-4.352v-14.59c0-2.156,1.051-3.193,3.223-3.193h30.95c2.089,0,3.063.971,3.063,3.052q0,9.811,0,19.625v.719Zm-20.484-2.776a.8.8,0,0,1-.54-.133,7.814,7.814,0,0,0-3.846-2.426,2.12,2.12,0,0,1,2.264-1.756q5.283-.007,10.563,0c1.87,0,3.737-.012,5.606.007A2.139,2.139,0,0,1-5531.1,3446a2.121,2.121,0,0,1-1.062,2.336,2.766,2.766,0,0,1-1.184.273q-3.542.015-7.085.013Q-5543.853,3448.624-5547.272,3448.619Zm5.9-7.927v0c-2.735,0-5.469.01-8.2,0a2.065,2.065,0,0,1-2.025-1.422,2.189,2.189,0,0,1,.658-2.387,2.372,2.372,0,0,1,1.656-.48q5.9.006,11.808,0c1.436,0,2.874-.015,4.311.006a2.045,2.045,0,0,1,2.013,1.507,2.018,2.018,0,0,1-.762,2.335,3.023,3.023,0,0,1-1.485.427c-1.328.019-2.655.023-3.982.023S-5540.045,3440.692-5541.375,3440.692Z" transform="translate(5573 -3427.999)"/></svg>