<?xml version="1.0" encoding="utf-8"?>
<!-- Generator: Adobe Illustrator 24.1.0, SVG Export Plug-In . SVG Version: 6.00 Build 0)  -->
<svg version="1.1" id="Layer_1" xmlns="http://www.w3.org/2000/svg" xmlns:xlink="http://www.w3.org/1999/xlink" x="0px" y="0px"
	 viewBox="0 0 85 85" style="enable-background:new 0 0 85 85;" xml:space="preserve">
<style type="text/css">
	.st0{fill:#FFFFFF;}
</style>
<g>
	<path className="st0" d="M12.4,12.4C20.7,4.2,30.8,0,42.5,0s21.8,4.2,30.1,12.4c8.3,8.3,12.4,18.3,12.4,30c0,11.7-4.2,21.7-12.4,30
		c-8.3,8.3-18.3,12.4-30.1,12.4s-21.8-4.2-30.1-12.4C4.1,64.1,0,54.1,0,42.4C0,30.7,4.1,20.7,12.4,12.4z M18.5,66.5
		c6.6,6.6,14.6,10,24,10c9.4,0,17.4-3.3,24-10c6.6-6.6,10-14.7,10-24.1c0-9.4-3.3-17.5-10-24.1c-6.6-6.6-14.6-10-24-10
		c-9.4,0-17.4,3.3-24,10C11.9,25,8.6,33,8.6,42.4C8.6,51.8,11.9,59.9,18.5,66.5z M34.1,61.5V23.3l25.5,19.1L34.1,61.5z"/>
</g>
</svg>
