<?xml version="1.0" encoding="utf-8"?>
<!-- Generator: Adobe Illustrator 24.1.1, SVG Export Plug-In . SVG Version: 6.00 Build 0)  -->
<svg version="1.1" id="Layer_1" xmlns="http://www.w3.org/2000/svg" xmlns:xlink="http://www.w3.org/1999/xlink" x="0px" y="0px"
	 viewBox="0 0 14.2 14.2" style="enable-background:new 0 0 14.2 14.2;" xml:space="preserve">
<style type="text/css">
	.st0{fill:#FFFFFF;}
	.st1{fill-rule:evenodd;clip-rule:evenodd;fill:#FFFFFF;}
</style>
<g transform="translate(0.974 -3.702)">
	<g transform="translate(-2 1.398)">
		<path className="st0" d="M9.5,5.2L7.8,3.3L7.2,3.8L9,5.6c0.1,0.1,0.3,0.2,0.5,0.2c0.2,0,0.4-0.1,0.5-0.2l3-2.8l-0.6-0.6L9.5,5.2z"/>
		<path className="st1" d="M5.3,8.1L4.7,6.4h2.6c0.3,0,0.5-0.2,0.5-0.5S7.6,5.4,7.4,5.4h-3L3.9,3.9C3.8,3.7,3.6,3.5,3.4,3.5H1.5
			C1.3,3.5,1,3.8,1.1,4.1c0,0.3,0.2,0.5,0.5,0.5h1.5l2.7,8.3c-1,0.2-1.6,1.2-1.4,2.2s1.2,1.6,2.2,1.4s1.6-1.2,1.4-2.2
			c0-0.2-0.1-0.3-0.2-0.5h3.5c-0.5,0.9-0.1,2,0.8,2.5s2,0.1,2.5-0.8c0.4-0.7,0.2-1.6-0.3-2.1c-0.3-0.3-0.8-0.5-1.3-0.5H6.8l-0.3-0.9
			H13c0.2,0,0.4-0.1,0.5-0.3l1.8-5.5c0.1-0.3,0-0.6-0.3-0.7c-0.1,0-0.1,0-0.2,0h-3.3c-0.3,0-0.5,0.2-0.5,0.5s0.2,0.5,0.5,0.5H14
			l-0.5,1.7L5.3,8.1z M13.2,9.1H5.6l0.6,1.8h6.4L13.2,9.1z M13,13.8c0.5,0,0.8,0.4,0.8,0.9c0,0.5-0.4,0.8-0.9,0.8s-0.8-0.4-0.8-0.9
			C12.1,14.2,12.5,13.9,13,13.8C12.9,13.8,13,13.8,13,13.8z M6.7,14.1c0.3,0.3,0.4,0.8,0,1.2c-0.3,0.3-0.8,0.4-1.2,0c0,0,0,0,0,0
			c-0.2-0.4-0.2-0.8,0-1.2C5.9,13.8,6.4,13.8,6.7,14.1z"/>
	</g>
</g>
</svg>
