<svg xmlns="http://www.w3.org/2000/svg" width="14.226" height="14.202" viewBox="0 0 14.226 14.202"><g transform="translate(0.974 -3.702)"><g transform="translate(-2 1.398)"><path d="M189.185,70.741,187.51,68.92l-.63.492,1.788,1.811a.706.706,0,0,0,.494.212.658.658,0,0,0,.494-.188l2.964-2.8-.585-.555Z" transform="translate(-179.703 -65.588)" fill="#038e4b"/><path d="M6.925,7.587,6.375,5.905H9A.506.506,0,0,0,9,4.893H6.045L5.537,3.339a.5.5,0,0,0-.48-.349H3.162A.506.506,0,0,0,3.162,4H4.691l2.718,8.324a1.843,1.843,0,1,0,2.018.974H12.94a1.844,1.844,0,1,0,2.949-.469,1.861,1.861,0,0,0-1.305-.542H8.459l-.291-.893h6.417a.505.505,0,0,0,.48-.349l1.782-5.457a.506.506,0,0,0-.47-.694H13.051a.506.506,0,0,0,0,1.012h2.629l-.549,1.682ZM14.8,8.6H7.255l.583,1.784h6.381Zm-.182,4.7a.829.829,0,1,1-.093,0,.6.6,0,0,1,.093,0Zm-6.249.245a.832.832,0,1,1-1.176,1.176,1.587,1.587,0,0,1,0-1.176.832.832,0,0,1,1.176,0Z" transform="translate(-1.63 0.533)" fill="#038e4b" fill-rule="evenodd"/></g></g></svg>