<svg xmlns="http://www.w3.org/2000/svg" width="15" height="15" viewBox="0 0 15 15" fill="currentcolor"><path className="a" d="M7.5,0A7.5,7.5,0,1,0,15,7.5,7.5,7.5,0,0,0,7.5,0Zm0,13.828A6.328,6.328,0,1,1,13.828,7.5,6.325,6.325,0,0,1,7.5,13.828Z"></path><g transform="translate(4.762 4.762)"><path className="a" d="M167.859,167.031l-1.737-1.737,1.737-1.737a.586.586,0,1,0-.829-.829l-1.737,1.737-1.737-1.737a.586.586,0,1,0-.829.829l1.737,1.737-1.737,1.737a.586.586,0,1,0,.829.829l1.737-1.737,1.737,1.737a.586.586,0,1,0,.829-.829Z" transform="translate(-162.555 -162.556)"></path></g></svg>
