<svg xmlns="http://www.w3.org/2000/svg" viewBox="0 0 512 512" width="512" height="512">
	<style>
		tspan { white-space:pre }
		.shp0 { fill: #2b2b2b } 
	</style>
	<g id="Layer">
		<g id="Layer">
			<path id="Layer" class="shp0" d="M53.33 224C23.94 224 0 247.94 0 277.33L0 448C0 477.4 23.94 501.33 53.33 501.33L117.33 501.33C129.34 501.33 140.39 497.28 149.33 490.54L149.33 224L53.33 224Z" />
		</g>
	</g>
	<g id="Layer">
		<g id="Layer">
			<path id="Layer" class="shp0" d="M512 304C512 291.18 506.92 279.23 498.11 270.42C508.08 259.52 513.15 244.91 511.77 229.7C509.27 202.58 484.84 181.33 456.13 181.33L324.35 181.33C330.88 161.51 341.33 125.18 341.33 96C341.33 49.73 302.02 10.67 277.33 10.67C255.17 10.67 239.34 23.15 238.66 23.66C236.14 25.69 234.67 28.76 234.67 32L234.67 104.34L173.23 237.44L170.67 238.74L170.67 467.39C188.03 475.58 210 480 224 480L419.82 480C443.05 480 463.38 464.34 468.16 442.73C470.61 431.62 469.18 420.42 464.3 410.69C480.06 402.75 490.67 386.52 490.67 368C490.67 360.45 488.94 353.22 485.65 346.67C501.42 338.73 512 322.5 512 304Z" />
		</g>
	</g>
	<g id="Layer">
	</g>
	<g id="Layer">
	</g>
	<g id="Layer">
	</g>
	<g id="Layer">
	</g>
	<g id="Layer">
	</g>
	<g id="Layer">
	</g>
	<g id="Layer">
	</g>
	<g id="Layer">
	</g>
	<g id="Layer">
	</g>
	<g id="Layer">
	</g>
	<g id="Layer">
	</g>
	<g id="Layer">
	</g>
	<g id="Layer">
	</g>
	<g id="Layer">
	</g>
	<g id="Layer">
	</g>
</svg>