<svg xmlns="http://www.w3.org/2000/svg" viewBox="0 0 13 15" width="13" height="15">
	<style>
		tspan { white-space:pre }
		.shp0 { fill: #ffffff } 
	</style>
	<g id="trash">
		<path id="Path_1948" className="shp0" d="M4.73 0.94L7.33 0.94L7.33 1.37L8.26 1.37L8.26 0.87C8.26 0.76 8.24 0.64 8.19 0.54C8.15 0.43 8.09 0.34 8 0.26C7.92 0.17 7.83 0.11 7.72 0.07C7.62 0.02 7.5 0 7.39 0L4.67 0C4.56 0 4.44 0.02 4.34 0.07C4.23 0.11 4.14 0.18 4.05 0.26C3.97 0.34 3.91 0.43 3.87 0.54C3.82 0.65 3.8 0.76 3.8 0.88L3.8 1.38L4.74 1.38L4.73 0.94Z" />
		<path id="Path_1949" fill-rule="evenodd" className="shp0" d="M10.42 4.02C10.48 4.02 10.53 4.03 10.58 4.05C10.64 4.08 10.68 4.11 10.72 4.15C10.76 4.19 10.79 4.24 10.81 4.3C10.83 4.35 10.83 4.41 10.83 4.46L10.1 13.54C10.09 13.67 10.05 13.78 10 13.89C9.95 14 9.88 14.1 9.79 14.18C9.7 14.27 9.59 14.33 9.48 14.38C9.37 14.42 9.25 14.44 9.12 14.44L2.93 14.44C2.81 14.44 2.69 14.42 2.58 14.38C2.46 14.33 2.36 14.27 2.27 14.18C2.18 14.1 2.11 14 2.05 13.89C2 13.78 1.97 13.67 1.96 13.54L1.22 4.46C1.22 4.41 1.23 4.35 1.25 4.3C1.26 4.24 1.29 4.19 1.33 4.15C1.37 4.11 1.42 4.08 1.47 4.05C1.52 4.03 1.58 4.02 1.64 4.02L10.42 4.02ZM3.94 13.42C4 13.4 4.05 13.36 4.09 13.31C4.13 13.27 4.16 13.21 4.18 13.15C4.2 13.1 4.21 13.03 4.2 12.97L3.74 5.52C3.74 5.39 3.68 5.27 3.59 5.19C3.5 5.11 3.37 5.06 3.25 5.07C3.12 5.08 3 5.14 2.92 5.23C2.84 5.33 2.8 5.45 2.81 5.58L3.27 13.03C3.27 13.09 3.29 13.15 3.31 13.2C3.34 13.25 3.37 13.3 3.42 13.34C3.46 13.38 3.51 13.41 3.56 13.44C3.62 13.46 3.68 13.47 3.74 13.47L3.77 13.47C3.83 13.47 3.89 13.45 3.94 13.42ZM6.5 5.55C6.5 5.42 6.45 5.3 6.37 5.22C6.28 5.13 6.16 5.08 6.04 5.08C5.91 5.08 5.79 5.13 5.7 5.22C5.62 5.3 5.57 5.42 5.57 5.55L5.57 13C5.57 13.13 5.62 13.25 5.7 13.33C5.79 13.42 5.91 13.47 6.04 13.47C6.16 13.47 6.28 13.42 6.37 13.33C6.45 13.25 6.5 13.13 6.5 13L6.5 5.55ZM9.13 5.24C9.05 5.16 8.93 5.1 8.81 5.09C8.69 5.09 8.57 5.13 8.48 5.21C8.39 5.29 8.33 5.4 8.32 5.52L7.88 12.97C7.87 13.04 7.88 13.1 7.9 13.15C7.92 13.21 7.95 13.27 8 13.31C8.04 13.36 8.09 13.4 8.14 13.42C8.2 13.45 8.26 13.47 8.32 13.47L8.35 13.47C8.4 13.47 8.46 13.46 8.52 13.44C8.57 13.41 8.62 13.38 8.67 13.34C8.71 13.3 8.74 13.25 8.77 13.2C8.79 13.15 8.81 13.09 8.81 13.03L9.25 5.57C9.25 5.45 9.21 5.33 9.13 5.24Z" />
		<path id="Path_1950" className="shp0" d="M12.04 3.03L11.73 2.11C11.71 2.05 11.68 1.99 11.65 1.94C11.61 1.89 11.57 1.85 11.52 1.81C11.47 1.78 11.41 1.75 11.35 1.73C11.29 1.71 11.23 1.7 11.17 1.7L0.89 1.7C0.83 1.7 0.77 1.71 0.71 1.73C0.65 1.75 0.6 1.78 0.55 1.81C0.49 1.85 0.45 1.89 0.41 1.94C0.38 1.99 0.35 2.05 0.33 2.11L0.02 3.03C0 3.09 0 3.15 0.01 3.21C0.01 3.27 0.04 3.33 0.07 3.38C0.11 3.43 0.16 3.47 0.21 3.49C0.27 3.52 0.33 3.54 0.39 3.54L11.67 3.54C11.69 3.54 11.71 3.54 11.73 3.53C11.74 3.53 11.76 3.53 11.78 3.52C11.8 3.52 11.81 3.51 11.83 3.5C11.84 3.5 11.86 3.49 11.87 3.48C11.91 3.46 11.94 3.43 11.97 3.39C12 3.36 12.02 3.32 12.03 3.28C12.05 3.24 12.06 3.2 12.06 3.16C12.06 3.11 12.05 3.07 12.04 3.03L12.04 3.03Z" />
	</g>
</svg>