<svg xmlns="http://www.w3.org/2000/svg" width="59.999" height="80" viewBox="0 0 59.999 80"><defs><style>.a{fill:#2b2b2b;}</style></defs><path class="a" d="M9163.595-1267a4.931,4.931,0,0,1-4.837-4.63l-3.651-46.862a2.1,2.1,0,0,1,2.043-2.3h43.7a2.093,2.093,0,0,1,2.043,2.3l-3.652,46.862a4.927,4.927,0,0,1-4.836,4.63Zm26.781-46.019-2.185,38.469a2.386,2.386,0,0,0,2.188,2.554c.047,0,.093,0,.14,0a2.362,2.362,0,0,0,2.318-2.274l2.188-38.469a2.387,2.387,0,0,0-2.187-2.553c-.045,0-.091,0-.137,0A2.369,2.369,0,0,0,9190.376-1313.019Zm-13.678.141v38.469a2.375,2.375,0,0,0,2.329,2.415,2.374,2.374,0,0,0,2.325-2.415v-38.469a2.372,2.372,0,0,0-2.325-2.415A2.372,2.372,0,0,0,9176.7-1312.878Zm-11.543-2.409a2.378,2.378,0,0,0-2.179,2.557l2.289,38.469a2.361,2.361,0,0,0,2.319,2.267c.049,0,.1,0,.148-.006a2.382,2.382,0,0,0,2.178-2.557l-2.289-38.469a2.367,2.367,0,0,0-2.321-2.266C9165.253-1315.291,9165.2-1315.29,9165.155-1315.286Zm-14.233-10.331a1.857,1.857,0,0,1-1.019-.3,2.026,2.026,0,0,1-.8-2.317l1.528-4.753a2.968,2.968,0,0,1,2.807-2.1h51.126a2.972,2.972,0,0,1,2.809,2.1l1.528,4.753a2.023,2.023,0,0,1-.806,2.317,1.834,1.834,0,0,1-1.015.3Zm34.522-14.3v-2.249h-12.891v2.249H9167.9v-2.566a4.438,4.438,0,0,1,4.351-4.513h13.5a4.437,4.437,0,0,1,4.346,4.513v2.566Z" transform="translate(-9149.001 1347)"/></svg>