<svg xmlns="http://www.w3.org/2000/svg" width="24.431" height="12.884" viewBox="0 0 24.431 12.884">
  <g id="eye_1_" data-name="eye (1)" transform="translate(0 -121)">
    <g id="Group_2095" data-name="Group 2095" transform="translate(-0.001 121)">
      <g id="Group_2094" data-name="Group 2094" transform="translate(0 0)">
        <path id="Path_1935" data-name="Path 1935" d="M24.248,126.964C24.03,126.721,18.785,121,12.215,121S.4,126.721.182,126.964a.716.716,0,0,0,0,.955c.218.243,5.463,5.964,12.033,5.964s11.815-5.721,12.033-5.964A.716.716,0,0,0,24.248,126.964Zm-12.033,5.488a5.01,5.01,0,1,1,5.01-5.01A5.016,5.016,0,0,1,12.215,132.452Z" transform="translate(0.001 -121)" fill="#8543cb"/>
      </g>
    </g>
    <g id="Group_2097" data-name="Group 2097" transform="translate(8.636 123.863)">
      <g id="Group_2096" data-name="Group 2096" transform="translate(0 0)">
        <path id="Path_1936" data-name="Path 1936" d="M185.295,183.147a2.141,2.141,0,0,1,.9-1.743,3.533,3.533,0,0,0-1.617-.4,3.579,3.579,0,1,0,3.518,4.182A2.135,2.135,0,0,1,185.295,183.147Z" transform="translate(-181 -181)" fill="#8543cb"/>
      </g>
    </g>
  </g>
</svg>
